<?xml version="1.0" encoding="UTF-8"?>
<svg version="1.1" xmlns="http://www.w3.org/2000/svg" width="2000" height="316">
<path d="M0 0 C11.22 0 22.44 0 34 0 C35.80881735 7.23526941 37.57322997 14.40582523 39.06884766 21.69995117 C39.25299728 22.58767212 39.43714691 23.47539307 39.62687683 24.39001465 C40.0207598 26.29013193 40.41356001 28.19047393 40.80534744 30.0910244 C41.42504481 33.09622711 42.04806884 36.10072343 42.67196655 39.10505676 C44.44317519 47.63719424 46.20829648 56.17058784 47.97167969 64.7043457 C49.05478938 69.94482934 50.14153134 75.18454919 51.23048019 80.4238224 C51.64420296 82.41831893 52.05645987 84.4131201 52.46724319 86.40822411 C53.03808931 89.18066008 53.61348961 91.95211371 54.18994141 94.72338867 C54.35929703 95.55185806 54.52865265 96.38032745 54.70314026 97.23390198 C55.20418252 100.92205207 55.20418252 100.92205207 57 104 C57.34919495 102.68718803 57.34919495 102.68718803 57.70544434 101.34785461 C59.93848449 92.95361603 62.17283523 84.55972752 64.40853119 76.16619587 C65.55688957 71.85471191 66.70480246 67.54311055 67.8515625 63.23120117 C73.46528571 42.12461634 79.15695241 21.04452773 85 0 C94.9 0 104.8 0 115 0 C118.37481355 10.12444066 118.37481355 10.12444066 119.63476562 14.63525391 C119.91936646 15.64987701 120.20396729 16.66450012 120.49719238 17.70986938 C120.7971814 18.78787811 121.09717041 19.86588684 121.40625 20.9765625 C121.73105347 22.13650726 122.05585693 23.29645203 122.39050293 24.49154663 C123.42908766 28.20211817 124.46466689 31.91352002 125.5 35.625 C131.96631557 58.75961877 138.47913403 81.88056611 145 105 C152.26 70.35 159.52 35.7 167 0 C178.22 0 189.44 0 201 0 C201 6.69183032 200.63467843 11.75545129 199.015625 18.03515625 C198.80414322 18.89054489 198.59266144 19.74593353 198.37477112 20.62724304 C197.67639482 23.44156354 196.96324793 26.25191522 196.25 29.0625 C195.75254918 31.05542713 195.25606732 33.04859635 194.76049805 35.04199219 C193.45100447 40.2989095 192.12913211 45.5526346 190.80438232 50.8057251 C189.48907339 56.02893574 188.18408874 61.25472016 186.87890625 66.48046875 C185.35397709 72.58485727 183.82835222 78.68905974 182.29663086 84.79174805 C178.894651 98.35428739 175.56085542 111.93183627 172.3215332 125.53417969 C171.87813599 127.3851123 171.87813599 127.3851123 171.42578125 129.2734375 C171.17223877 130.33997559 170.91869629 131.40651367 170.6574707 132.50537109 C170 135 170 135 169 137 C153.16 137 137.32 137 121 137 C115.45471512 118.42974364 110.37547097 99.74986363 105.35668945 81.03125 C105.07701828 79.99108734 104.79734711 78.95092468 104.50920105 77.87924194 C103.97639274 75.89718582 103.44540706 73.91463863 102.91645813 71.93154907 C102.6786412 71.04744354 102.44082428 70.16333801 102.19580078 69.25244141 C101.98819122 68.4765567 101.78058167 67.700672 101.56668091 66.90127563 C101.04142327 64.93859515 101.04142327 64.93859515 100 63 C99.76418716 63.91232895 99.52837433 64.8246579 99.28541565 65.76463318 C97.06719684 74.34477291 94.84535877 82.92396817 92.61993504 91.50224209 C91.47582612 95.91288736 90.33301382 100.32386026 89.19311523 104.7355957 C88.09387058 108.98979501 86.99128487 113.24311525 85.88633537 117.49583626 C85.46448537 119.12189672 85.04385888 120.74827509 84.62445259 122.37496758 C84.0387189 124.64592251 83.44872149 126.91572803 82.85766602 129.18530273 C82.68359726 129.86431137 82.5095285 130.54332001 82.33018494 131.24290466 C81.11405216 135.88594784 81.11405216 135.88594784 80 137 C78.49581261 137.09311889 76.98728644 137.11746028 75.48022461 137.11352539 C74.03884377 137.11341209 74.03884377 137.11341209 72.56834412 137.11329651 C71.523564 137.10813522 70.47878387 137.10297394 69.40234375 137.09765625 C67.80635094 137.09553383 67.80635094 137.09553383 66.17811584 137.09336853 C62.76454917 137.08775064 59.351047 137.07519511 55.9375 137.0625 C53.62955824 137.05748731 51.32161545 137.052924 49.01367188 137.04882812 C43.34242574 137.0377754 37.67121747 137.02101987 32 137 C30.37429474 133.20209315 29.28284322 129.445983 28.31103516 125.43286133 C28.07583255 124.46817271 28.07583255 124.46817271 27.83587837 123.48399544 C27.31674605 121.3508466 26.80290265 119.21646051 26.2890625 117.08203125 C25.92099013 115.56507336 25.55259526 114.04819369 25.18389893 112.53138733 C24.19696865 108.46679577 23.21472341 104.40108676 22.23378754 100.33504486 C21.21894979 96.13000848 20.2012937 91.92565403 19.18408203 87.72119141 C17.95801695 82.65239967 16.73261201 77.58345063 15.5093689 72.51397705 C13.36845603 63.64326957 11.21556845 54.77573214 9.03909302 45.91368103 C7.90451512 41.29214807 6.77664674 36.66899452 5.65008545 32.04550171 C5.13693687 29.94645774 4.62074369 27.84815554 4.10137939 25.75064087 C3.38989372 22.87480356 2.68969728 19.99644112 1.9921875 17.1171875 C1.78684387 16.29968521 1.58150024 15.48218292 1.36993408 14.63990784 C1.18710876 13.87556931 1.00428345 13.11123077 0.81591797 12.32373047 C0.57758743 11.3528096 0.57758743 11.3528096 0.33444214 10.36227417 C-0.14999917 6.94050681 0 3.45588994 0 0 Z " fill="#FFFFFF" transform="translate(1191,111)"/>
<path d="M0 0 C2.42723195 2.23558817 4.73907815 4.55790934 7.04296875 6.92114258 C7.708125 7.57727539 8.37328125 8.2334082 9.05859375 8.90942383 C20.15654837 20.58227249 26.07745016 36.19699389 28.04296875 51.92114258 C16.16296875 51.92114258 4.28296875 51.92114258 -7.95703125 51.92114258 C-9.27703125 47.63114258 -10.59703125 43.34114258 -11.95703125 38.92114258 C-18.56688824 27.31717142 -27.43753752 21.00573581 -40.17578125 16.87817383 C-58.58673868 12.2969426 -78.44476249 13.97126871 -95.2109375 23.11645508 C-107.48443513 31.1823952 -113.89846878 43.24756121 -117.44921875 57.22583008 C-121.41912395 78.29686535 -119.69526037 101.30731904 -108.08203125 119.73364258 C-107.06705336 121.1490012 -106.02613009 122.54620701 -104.95703125 123.92114258 C-104.48007812 124.53602539 -104.003125 125.1509082 -103.51171875 125.78442383 C-95.08477849 135.33354458 -81.0841957 140.13320672 -68.69775391 141.09692383 C-51.27130897 142.07339062 -34.34119178 139.55681168 -20.26953125 128.48364258 C-12.65881005 121.37220628 -9.42611087 111.79746105 -6.95703125 101.92114258 C4.92296875 101.92114258 16.80296875 101.92114258 29.04296875 101.92114258 C26.30097696 123.8570769 15.68550509 143.95692011 -1.70703125 157.79614258 C-24.60452636 173.89825204 -54.27603313 177.30704456 -81.5390625 173.23754883 C-85.77903386 172.43082272 -89.87005433 171.3012014 -93.95703125 169.92114258 C-94.61928711 169.70151855 -95.28154297 169.48189453 -95.96386719 169.25561523 C-109.26655739 164.70435585 -119.95947345 157.75179624 -129.95703125 147.92114258 C-131.00697266 146.89053711 -131.00697266 146.89053711 -132.078125 145.83911133 C-141.77108544 135.65488974 -147.30556884 123.36516328 -150.95703125 109.92114258 C-151.27671875 108.77129883 -151.59640625 107.62145508 -151.92578125 106.43676758 C-158.49834749 78.0773614 -154.54034971 45.72582241 -139.484375 20.72583008 C-135.68662052 14.78295057 -130.98998089 9.82600817 -125.95703125 4.92114258 C-125.3021875 4.25727539 -124.64734375 3.5934082 -123.97265625 2.90942383 C-93.31464325 -26.24189195 -32.0792618 -28.09386451 0 0 Z " fill="#FFFFFF" transform="translate(512.95703125,77.078857421875)"/>
<path d="M0 0 C10.23 0 20.46 0 31 0 C32.65 8.91 34.3 17.82 36 27 C38.475 22.545 38.475 22.545 41 18 C47.32935158 9.15463289 55.85111359 3.01802841 66.48828125 0.46875 C83.42604662 -1.79213081 100.58495755 -0.92754025 115 9 C128.83112388 19.78950972 134.80529725 36.06895723 137 53 C139.64304134 77.46739981 138.25489809 104.03815442 122.34765625 124.08203125 C114.22477659 132.85474128 102.32013561 138.4250594 90.38793945 139.16113281 C87.36268097 139.20691763 84.33807551 139.23525009 81.3125 139.25 C79.75499023 139.2809375 79.75499023 139.2809375 78.16601562 139.3125 C64.95511002 139.3787616 54.17458017 135.24894524 44.625 126 C41.50592968 122.81456648 39.56701003 119.85051504 37 116 C36.67 142.4 36.34 168.8 36 196 C24.12 196 12.24 196 0 196 C0 131.32 0 66.64 0 0 Z M43 42 C35.36085201 54.67359921 34.24587679 69.50551441 37.1875 83.8125 C39.67353712 93.28476179 43.7083154 100.51013678 52 106 C61.6294539 111.22432651 72.90909737 111.5291068 83.4375 108.9375 C90.70288928 106.35478687 96.22571335 100.91802893 99.96875 94.25390625 C106.11550191 80.81952803 106.19521248 63.3647451 101.125 49.5625 C97.7678716 41.91570754 91.97820354 35.33338242 84.125 32.0625 C69.72394895 28.05525101 52.91621596 30.07403871 43 42 Z " fill="#FFFFFF" transform="translate(809,112)"/>
<path d="M0 0 C11.55 0 23.1 0 35 0 C35.33 25.08 35.66 50.16 36 76 C37.65 73.03 39.3 70.06 41 67 C46.8852563 58.66255357 56.3456936 53.09515686 66.140625 50.4140625 C80.76266709 48.29666296 95.85508021 49.04830712 108.4375 57.3125 C121.73514551 67.49518816 126.54569342 81.93950308 129 98 C130.17015683 107.92457678 130.13048165 117.82288523 130.09765625 127.796875 C130.09578681 129.48366249 130.0943654 131.17045054 130.09336853 132.85723877 C130.08958474 137.2564041 130.07979073 141.65553543 130.06866455 146.0546875 C130.05654288 151.35461728 130.05202846 156.65455856 130.04621124 161.95449829 C130.036576 169.96968904 130.01739073 177.98480545 130 186 C118.78 186 107.56 186 96 186 C95.96261719 180.59238281 95.92523437 175.18476563 95.88671875 169.61328125 C95.85640087 166.16338113 95.82522814 162.71353023 95.79101562 159.26367188 C95.73693226 153.80202893 95.68581446 148.34048332 95.65356445 142.87866211 C95.62732981 138.46940123 95.58678927 134.06047209 95.53681374 129.65141869 C95.52028004 127.97918041 95.50868256 126.30688495 95.50238609 124.6345768 C95.49266816 105.10283028 95.49266816 105.10283028 87 88 C80.75378688 82.06609754 73.60172473 80.70212137 65.14453125 80.84765625 C56.76628125 81.44283248 50.71464809 83.93584679 44.875 90.125 C31.91920462 106.26887068 35.59763059 132.71915926 35.39910889 152.29882812 C35.35136851 156.78134743 35.29013432 161.26370185 35.23126221 165.74608612 C35.14405146 172.49732113 35.07357483 179.24854084 35 186 C23.45 186 11.9 186 0 186 C0 124.62 0 63.24 0 0 Z " fill="#FFFFFF" transform="translate(1789,62)"/>
<path d="M0 0 C4.08236204 4.05415919 7.41837676 7.83675351 10 13 C10.33 5.41 10.66 -2.18 11 -10 C22.88 -10 34.76 -10 47 -10 C47 34.88 47 79.76 47 126 C37.1 126 27.2 126 17 126 C13.625 115.875 13.625 115.875 12.3125 110.9375 C12.06113281 109.99777344 11.80976562 109.05804688 11.55078125 108.08984375 C11.36902344 107.40019531 11.18726563 106.71054688 11 106 C10.6596875 106.4846875 10.319375 106.969375 9.96875 107.46875 C1.63475349 118.99448986 -6.90114227 125.76930697 -21 129 C-37.58744878 130.41282585 -52.97969395 129.98390593 -66.49609375 119.3203125 C-80.20539162 106.61622056 -85.22450534 87.19989033 -86 69 C-86.72917494 46.82986495 -85.42019547 21.73282025 -70.75 3.75 C-53.33758653 -14.82324104 -19.46246652 -16.42935486 0 0 Z M-44 30 C-52.32622475 40.12648957 -52.68935783 54.48943206 -52 67 C-50.79940358 77.13384774 -48.83986001 86.90474873 -40.85546875 93.87109375 C-31.96138149 100.18938061 -22.67193949 100.91441906 -12 100 C-4.42956402 98.10004582 1.47030847 94.77863852 5.625 88.0625 C12.87657523 73.92535964 13.22961379 55.01402105 9.03515625 39.8359375 C6.34731091 32.47225556 3.05032427 26.6532975 -4.015625 22.89453125 C-17.87488659 16.64695073 -33.63540289 18.84182585 -44 30 Z " fill="#FFFFFF" transform="translate(1485,122)"/>
<path d="M0 0 C11.55 0 23.1 0 35 0 C38.25142277 7.80341465 41.32046691 15.48015787 44.0390625 23.45703125 C44.40225586 24.51184189 44.76544922 25.56665253 45.13964844 26.65342712 C45.90945795 28.89017266 46.67759643 31.12749394 47.44415283 33.36535645 C49.43416719 39.17463081 51.43641046 44.97968957 53.4375 50.78515625 C53.83023102 51.92552338 54.22296204 53.0658905 54.62759399 54.24081421 C57.9095961 63.76194641 61.24465033 73.26337712 64.625 82.75 C64.85664856 83.40038239 65.08829712 84.05076477 65.32696533 84.72085571 C66.54830361 88.14831695 67.77313478 91.57451412 69 95 C72.32582583 87.14317953 75.48270524 79.24273989 78.4765625 71.25390625 C79.08800865 69.63019356 79.08800865 69.63019356 79.71180725 67.97367859 C80.57509138 65.68050923 81.43744574 63.38698966 82.29891968 61.09313965 C83.63706274 57.53038341 84.97793073 53.96866377 86.31958008 50.40722656 C89.22736337 42.68754083 92.13203168 34.96668487 95.03594971 27.24554443 C96.9165605 22.24580133 98.80088056 17.24747875 100.6875 12.25 C101.12594238 11.08154541 101.56438477 9.91309082 102.01611328 8.70922852 C102.40653809 7.67596436 102.79696289 6.6427002 103.19921875 5.578125 C103.52752686 4.70575195 103.85583496 3.83337891 104.1940918 2.93457031 C105 1 105 1 106 0 C108.6662603 -0.08855161 111.30647114 -0.11524673 113.97265625 -0.09765625 C114.77029892 -0.0962413 115.56794159 -0.09482635 116.38975525 -0.09336853 C118.94737435 -0.08775316 121.50490718 -0.07519812 124.0625 -0.0625 C125.79231645 -0.05748698 127.52213426 -0.05292373 129.25195312 -0.04882812 C133.50133553 -0.03777875 137.75065312 -0.02050386 142 0 C133.97385789 19.41993857 125.75108824 38.75523273 117.51757812 58.08789062 C115.29665765 63.30277852 113.0772646 68.51831533 110.85809326 73.73394775 C105.98886784 85.17769318 101.11496423 96.61943235 96.23626709 108.05914307 C93.50761186 114.45864533 90.78433233 120.86038992 88.06678772 127.26461792 C86.44693709 131.07973356 84.82304687 134.89312071 83.19821167 138.70611572 C82.45711434 140.44766955 81.71771597 142.18994762 80.98025513 143.93304443 C62.03733132 188.69577721 62.03733132 188.69577721 47.859375 196.12109375 C41.04060366 198.84079453 34.31977098 199.14421156 27.1015625 199.09765625 C26.26660248 199.0962413 25.43164246 199.09482635 24.57138062 199.09336853 C21.92254958 199.08780174 19.2738052 199.07525547 16.625 199.0625 C14.82161581 199.0574807 13.01823029 199.05291855 11.21484375 199.04882812 C6.80986279 199.0378432 2.40494606 199.02060163 -2 199 C-2.02886537 194.68751391 -2.04675255 190.37505238 -2.0625 186.0625 C-2.07087891 184.83080078 -2.07925781 183.59910156 -2.08789062 182.33007812 C-2.09111328 181.16025391 -2.09433594 179.99042969 -2.09765625 178.78515625 C-2.10289307 177.70113525 -2.10812988 176.61711426 -2.11352539 175.50024414 C-2 173 -2 173 -1 172 C0.91668943 171.87815574 2.83750742 171.82025208 4.7578125 171.7890625 C5.94117188 171.76070312 7.12453125 171.73234375 8.34375 171.703125 C10.84100523 171.65152882 13.33842049 171.60711801 15.8359375 171.5703125 C26.07172498 171.57450395 26.07172498 171.57450395 34.52026367 166.46582031 C39.17873328 160.73301227 42.26192712 153.99822667 45.4375 147.375 C45.99115234 146.26898438 46.54480469 145.16296875 47.11523438 144.0234375 C47.63279297 142.9509375 48.15035156 141.8784375 48.68359375 140.7734375 C49.15337646 139.80841309 49.62315918 138.84338867 50.10717773 137.84912109 C51.83157744 132.34631974 49.6759332 127.76480165 47.578125 122.62109375 C47.32625931 121.99777161 47.07439362 121.37444946 46.81489563 120.73223877 C46.26024337 119.36123411 45.70285683 117.99133324 45.14309692 116.62240601 C43.55524861 112.737834 41.98881363 108.84459607 40.41796875 104.953125 C40.07253525 104.0991362 39.72710175 103.2451474 39.37120056 102.36528015 C34.70911398 90.82960186 30.13971086 79.25704959 25.5625 67.6875 C24.89288742 65.99501633 24.89288742 65.99501633 24.20974731 64.26834106 C23.76420502 63.14217377 23.31866272 62.01600647 22.85961914 60.85571289 C22.19419853 59.17384132 22.19419853 59.17384132 21.51533508 57.45799255 C20.62825282 55.21581773 19.74127893 52.97360004 18.85441589 50.7313385 C16.39168252 44.5072613 13.92108022 38.28641281 11.44038391 32.06947327 C10.01607251 28.49906094 8.59539845 24.92720787 7.17526245 21.35513306 C6.52174803 19.71424995 5.86644076 18.07407964 5.20925903 16.43466187 C4.31589742 14.20563606 3.42871101 11.97424958 2.54296875 9.7421875 C2.28158112 9.09485153 2.02019348 8.44751556 1.75088501 7.78056335 C0.65708503 5.0076886 0 3.01487361 0 0 Z " fill="#FFFFFF" transform="translate(655,112)"/>
<path d="M0 0 C13.24260553 10.66258066 20.34516947 27.79337064 22.515625 44.26171875 C22.79673704 48.37076785 22.8500296 52.45647063 22.828125 56.57421875 C22.82075317 58.22006958 22.82075317 58.22006958 22.81323242 59.89916992 C22.54728486 78.33410923 17.07979943 96.24721081 4.265625 110.01171875 C-12.84724457 125.83733707 -33.92257487 127.03270746 -56.12792969 126.44091797 C-71.58888352 125.61546408 -86.3902272 119.07523886 -97.484375 108.26171875 C-113.25627021 90.0228663 -115.56733814 68.44644581 -114.484375 45.26171875 C-112.81374894 26.97453015 -104.38383125 11.15271498 -90.484375 -0.73828125 C-65.10078986 -19.21029053 -25.1922554 -17.62665668 0 0 Z M-72.484375 24.26171875 C-80.9562359 36.11306515 -82.52830667 51.31949955 -80.796875 65.44921875 C-79.08686941 75.49550157 -76.55337794 84.52226743 -68.484375 91.26171875 C-57.92653855 97.87686315 -46.68133614 98.38209822 -34.56640625 96.90625 C-26.74073533 95.05247422 -20.61827452 89.70846806 -16.0390625 83.2109375 C-8.56985261 69.40673108 -9.19499037 50.1035034 -13.265625 35.44921875 C-16.21671428 27.10475941 -21.66011467 20.49985976 -29.484375 16.26171875 C-43.49704366 11.45139966 -62.30459675 12.32313065 -72.484375 24.26171875 Z " fill="#FFFFFF" transform="translate(1162.484375,124.73828125)"/>
<path d="M0 0 C8.84960785 8.27807068 15.10436792 19.07625372 17.8125 30.875 C17.8125 33.515 17.8125 36.155 17.8125 38.875 C7.2525 38.875 -3.3075 38.875 -14.1875 38.875 C-15.5075 35.245 -16.8275 31.615 -18.1875 27.875 C-22.73294529 20.86202726 -29.33354785 17.27646218 -37.375 15.5 C-48.66376632 13.8556979 -59.68496243 15.061544 -69.3671875 21.2734375 C-76.13374122 26.50794132 -80.44442033 34.531125 -82.1875 42.875 C-82.43188773 46.24681017 -82.41861839 49.6201918 -82.4375 53 C-82.458125 53.89976562 -82.47875 54.79953125 -82.5 55.7265625 C-82.56054899 66.26208652 -79.60984995 75.46201217 -73.1875 83.875 C-65.73478739 91.34343563 -57.46981346 93.16108762 -47.25 93.3125 C-40.20591213 93.27294667 -34.36928697 92.50369713 -28.1875 88.875 C-27.52363281 88.48957031 -26.85976562 88.10414063 -26.17578125 87.70703125 C-18.39508807 82.666708 -16.8930074 76.89335799 -14.1875 67.875 C-3.6275 67.875 6.9325 67.875 17.8125 67.875 C17.8125 80.83381989 13.92383564 90.89604306 5.8125 100.875 C5.37550781 101.48472656 4.93851563 102.09445313 4.48828125 102.72265625 C-4.66441678 114.78882573 -20.58573928 121.79955196 -35.1875 123.875 C-56.96952272 125.49237983 -78.69720059 123.69846326 -96.07495117 109.01611328 C-108.42435007 97.93297028 -116.13995736 82.56713467 -117.40844727 65.98706055 C-118.26179631 43.76193808 -115.32252765 22.37543082 -99.8125 5.3125 C-73.75305995 -21.87898261 -29.11022833 -23.23053865 0 0 Z " fill="#FFFFFF" transform="translate(1753.1875,127.125)"/>
<path d="M0 0 C9.24 0 18.48 0 28 0 C28 11.55 28 23.1 28 35 C38.23 35 48.46 35 59 35 C59 42.92 59 50.84 59 59 C48.77 59 38.54 59 28 59 C28 87.05 28 115.1 28 144 C38.23 144 48.46 144 59 144 C59 152.91 59 161.82 59 171 C53.50393745 171.09241394 48.01062814 171.17187089 42.5144043 171.21972656 C40.64940193 171.23969895 38.78446102 171.26688668 36.91967773 171.30175781 C11.85038745 171.7584178 11.85038745 171.7584178 2.4296875 162.67578125 C-7.05782062 151.55517746 -5.28013725 134.73760744 -5.1953125 121.01171875 C-5.19157343 119.21426045 -5.18873069 117.41680008 -5.18673706 115.61933899 C-5.17917092 110.9324461 -5.15958439 106.24568097 -5.1373291 101.55883789 C-5.11671778 96.75864387 -5.10770295 91.95842882 -5.09765625 87.15820312 C-5.0763305 77.7720708 -5.04120727 68.38606611 -5 59 C-11.6 59 -18.2 59 -25 59 C-25 51.08 -25 43.16 -25 35 C-22.97875 34.7525 -20.9575 34.505 -18.875 34.25 C-13.46659223 33.40346661 -9.98642724 32.77661528 -6 29 C-3.51933981 24.73252764 -2.47757625 21.06836759 -1.875 16.1875 C-1.72804688 15.04667969 -1.58109375 13.90585938 -1.4296875 12.73046875 C-0.94106658 8.48835073 -0.47156092 4.2440483 0 0 Z " fill="#FFFFFF" transform="translate(1564,77)"/>
<path d="M0 0 C9.24 0 18.48 0 28 0 C28 11.55 28 23.1 28 35 C38.23 35 48.46 35 59 35 C59 42.92 59 50.84 59 59 C48.77 59 38.54 59 28 59 C28 87.05 28 115.1 28 144 C38.56 144 49.12 144 60 144 C60 152.91 60 161.82 60 171 C54.48600861 171.06924547 48.97355401 171.12886477 43.45947266 171.16479492 C41.58767557 171.17978865 39.71591306 171.2001905 37.84423828 171.22631836 C12.18949386 171.57522288 12.18949386 171.57522288 3 163 C-5.79293698 152.74157352 -4.40109341 138.52943275 -4.29296875 125.89453125 C-4.28736393 123.95969473 -4.28309802 122.02485392 -4.28010559 120.0900116 C-4.26872658 115.03148357 -4.23932017 109.97321961 -4.20599365 104.91479492 C-4.17514201 99.73945689 -4.16156818 94.56407563 -4.14648438 89.38867188 C-4.11444294 79.25898071 -4.06173276 69.12955377 -4 59 C-10.6 59 -17.2 59 -24 59 C-24 51.08 -24 43.16 -24 35 C-16.8125 33.8125 -16.8125 33.8125 -14.57739258 33.47583008 C-9.59566826 32.56290639 -7.09020055 30.96661102 -4 27 C-0.4049644 18.62002266 -0.41521574 8.96866001 0 0 Z " fill="#FFFFFF" transform="translate(977,77)"/>
<path d="M0 0 C10.89 0 21.78 0 33 0 C33.99 14.355 33.99 14.355 35 29 C36.61558817 26.84588245 38.21722712 24.67907396 39.7265625 22.44921875 C47.04193958 11.80730189 56.43574257 4.19087778 69.0625 0.6875 C76.30868306 -0.3214622 83.68390995 0 91 0 C91 12.54 91 25.08 91 38 C79.25 38.8125 79.25 38.8125 75.62597656 39.04614258 C64.41947028 39.88470598 52.845131 41.50839439 44 49 C35.57753705 59.27470584 35.68561997 71.10344052 35.5859375 83.75390625 C35.56719598 85.26563031 35.54762042 86.77734423 35.5272522 88.28904724 C35.47623973 92.23936957 35.43645021 96.1897257 35.39910889 100.14019775 C35.35178147 104.89534508 35.29031784 109.65032875 35.23126221 114.4053421 C35.14342712 121.60349421 35.07339372 128.80162098 35 136 C23.45 136 11.9 136 0 136 C0 91.12 0 46.24 0 0 Z " fill="#FFFFFF" transform="translate(558,112)"/>
<path d="M0 0 C1.55267578 0.01015137 1.55267578 0.01015137 3.13671875 0.02050781 C42.48949038 0.53704297 74.99112529 13.30116671 104.625 39.25 C105.38941406 39.91128906 106.15382813 40.57257812 106.94140625 41.25390625 C130.28676537 63.03965891 146.30478324 97.15942941 147.80200195 129.01611328 C147.82815939 130.36741424 147.8483231 131.71884117 147.86328125 133.0703125 C147.8730751 133.80290787 147.88286896 134.53550323 147.89295959 135.29029846 C148.06273956 151.28479651 148.07915144 166.74639109 143.625 182.25 C143.42132813 182.97558105 143.21765625 183.70116211 143.0078125 184.44873047 C134.60954729 213.27888626 115.7332589 239.48055055 91.625 257.25 C90.6453125 257.98347656 89.665625 258.71695312 88.65625 259.47265625 C64.12967468 277.16943027 36.93561327 285.47350485 6.75 285.5 C5.71404694 285.50101212 5.71404694 285.50101212 4.65716553 285.50204468 C-6.27636184 285.48509912 -16.72881173 284.87019627 -27.375 282.25 C-28.38796143 282.01651855 -28.38796143 282.01651855 -29.42138672 281.77832031 C-51.68168738 276.52889191 -71.14706312 265.02042235 -88.375 250.25 C-89.65890625 249.16912109 -89.65890625 249.16912109 -90.96875 248.06640625 C-115.7165956 226.64118807 -133.8873079 192.16460945 -136.375 159.25 C-137.89582054 117.3467595 -129.46552016 79.10960657 -100.61230469 47.30712891 C-91.7007278 37.7570492 -82.28793431 29.43121252 -71.375 22.25 C-70.405625 21.60804687 -69.43625 20.96609375 -68.4375 20.3046875 C-48.44712932 7.92176344 -23.58244339 -0.2270554 0 0 Z M-98.375 54.25 C-122.21787043 81.85279428 -132.01377754 117.33042425 -130.375 153.25 C-127.56946031 189.99308261 -109.61313189 223.57293408 -81.82080078 247.59326172 C-52.49251629 272.09595125 -16.57592892 282.12148901 21.35449219 279.02734375 C49.18990063 275.99269653 73.49324835 264.29708321 94.625 246.25 C95.70761631 245.39492473 96.79081355 244.54058355 97.875 243.6875 C101.49074601 240.48263422 104.51684143 236.94055515 107.625 233.25 C108.80642578 231.90035156 108.80642578 231.90035156 110.01171875 230.5234375 C135.20566894 201.27839271 143.3729653 166.16740111 141.625 128.25 C140.36872409 112.60165091 135.6783968 97.23483286 128.625 83.25 C128.14675781 82.26 127.66851562 81.27 127.17578125 80.25 C111.28665336 48.85646887 82.5004771 25.19209517 49.625 13.25 C46.62169006 12.26776827 43.60162846 11.36465164 40.5625 10.5 C39.86721191 10.30116211 39.17192383 10.10232422 38.45556641 9.89746094 C-12.14384812 -3.71872123 -64.20016456 16.2218815 -98.375 54.25 Z " fill="#FFFFFF" transform="translate(155.375,1.75)"/>
<path d="M0 0 C1.7013208 0.00737183 1.7013208 0.00737183 3.43701172 0.01489258 C39.14524054 0.50601295 69.24246829 14.4637526 94 39.87890625 C120.01729375 67.96176218 127.85935794 100.63022161 126.6640625 138.04296875 C126.34594916 144.38251325 125.34030411 150.21997805 123.5 156.3125 C123.20996094 157.33778809 123.20996094 157.33778809 122.9140625 158.38378906 C114.42318043 188.14118595 95.4190753 215.42429141 68.5 231.3125 C67.86658691 231.68810059 67.23317383 232.06370117 66.58056641 232.45068359 C38.32908819 248.95846339 4.45493257 254.40484129 -27.5 246.3125 C-59.38810618 237.78549178 -87.26003857 217.98764207 -104.17993164 189.37451172 C-106.05230886 186.06889209 -107.80085751 182.70995856 -109.5 179.3125 C-109.82871094 178.66168457 -110.15742187 178.01086914 -110.49609375 177.34033203 C-117.16157058 163.89895632 -121.00591378 149.34990671 -121.5 134.3125 C-121.53996094 133.22453125 -121.57992187 132.1365625 -121.62109375 131.015625 C-122.21207711 98.61583126 -113.45657864 66.352589 -90.5625 42.46484375 C-88.68685 40.5074893 -87.01061747 38.48491095 -85.3125 36.375 C-76.05340422 25.84171673 -63.83324111 18.65396476 -51.5 12.3125 C-50.55640625 11.82007813 -49.6128125 11.32765625 -48.640625 10.8203125 C-43.25988521 8.19516369 -37.72163496 6.34016822 -32 4.625 C-31.32396729 4.42229492 -30.64793457 4.21958984 -29.95141602 4.01074219 C-19.98642604 1.16054331 -10.36146342 -0.05365008 0 0 Z M-83.5 43.3125 C-104.71294456 66.75527723 -116.43211605 97.62812788 -115.68359375 129.2421875 C-114.92583632 141.91447133 -112.96571493 153.41172042 -108.5 165.3125 C-108.25121094 165.97636719 -108.00242187 166.64023438 -107.74609375 167.32421875 C-100.58724701 185.92283062 -88.36530426 204.0393401 -72.5 216.3125 C-71.69304687 216.94414062 -70.88609375 217.57578125 -70.0546875 218.2265625 C-43.35816149 238.38516377 -12.931287 246.36978366 20.3125 242.625 C40.50620624 239.40888427 60.99535189 230.72001486 76.5 217.3125 C77.38945312 216.54808594 78.27890625 215.78367188 79.1953125 214.99609375 C81.67328576 212.81029943 84.0931373 210.57604688 86.5 208.3125 C87.10199219 207.77496094 87.70398438 207.23742187 88.32421875 206.68359375 C101.20635751 194.70230386 109.79926855 178.07069542 115.375 161.625 C115.80462036 160.36127563 115.80462036 160.36127563 116.24291992 159.07202148 C124.88311962 132.23673057 122.49168763 101.69101208 110.5 76.3125 C110.01853516 75.28793701 110.01853516 75.28793701 109.52734375 74.24267578 C96.40479379 46.84373949 73.67912481 24.19232234 44.90234375 13.5546875 C-1.04310975 -2.58830967 -49.3094488 8.43519455 -83.5 43.3125 Z " fill="#FFFFFF" transform="translate(158.5,19.6875)"/>
<path d="M0 0 C13.70522921 -0.12236812 27.30635192 0.37400466 41 1 C41 8.59 41 16.18 41 24 C47.50229806 25.43618941 47.50229806 25.43618941 54.01147461 26.84057617 C64.79918958 29.31635937 74.64139905 34.55443732 80.8125 44 C86.02544485 53.09274315 87.21288931 63.51270068 84.7109375 73.69921875 C82.12220653 82.07703493 77.40568932 87.08705601 71 93 C71.804375 93.309375 72.60875 93.61875 73.4375 93.9375 C81.90261169 98.23023437 87.76104919 106.2664005 91 115 C93.84275241 125.98833145 92.94432907 139.65649303 87.55859375 149.68359375 C80.28960377 160.76416549 70.68555582 168.25341108 57.625 170.96875 C46.90633705 173 46.90633705 173 42 173 C42.00523682 173.62044189 42.01047363 174.24088379 42.01586914 174.88012695 C42.03665466 177.69090767 42.04966517 180.50167221 42.0625 183.3125 C42.07087891 184.28896484 42.07925781 185.26542969 42.08789062 186.27148438 C42.09111328 187.20927734 42.09433594 188.14707031 42.09765625 189.11328125 C42.10289307 189.97735596 42.10812988 190.84143066 42.11352539 191.73168945 C42 194 42 194 41 197 C27.47 197 13.94 197 0 197 C-0.33 189.08 -0.66 181.16 -1 173 C-2.96324219 173.01160156 -4.92648438 173.02320313 -6.94921875 173.03515625 C-9.52864488 173.04453598 -12.10807204 173.05363599 -14.6875 173.0625 C-15.98107422 173.07087891 -17.27464844 173.07925781 -18.60742188 173.08789062 C-19.85458984 173.09111328 -21.10175781 173.09433594 -22.38671875 173.09765625 C-23.53358154 173.10289307 -24.68044434 173.10812988 -25.86206055 173.11352539 C-29 173 -29 173 -34 172 C-34 163.09 -34 154.18 -34 145 C-28.39 145 -22.78 145 -17 145 C-17 114.31 -17 83.62 -17 52 C-22.61 52 -28.22 52 -34 52 C-34 43.09 -34 34.18 -34 25 C-22.78 25 -11.56 25 0 25 C0 16.75 0 8.5 0 0 Z M6 7 C6 15.25 6 23.5 6 32 C-5.22 32 -16.44 32 -28 32 C-28 36.29 -28 40.58 -28 45 C-23.65947453 48.29430046 -23.65947453 48.29430046 -11 47 C-11 80.99 -11 114.98 -11 150 C-15.29 150 -19.58 150 -24 150 C-24.99 150.33 -25.98 150.66 -27 151 C-27 156.28 -27 161.56 -27 167 C-16.11 167 -5.22 167 6 167 C6 175.25 6 183.5 6 192 C9.3 192 12.6 192 16 192 C16.06058594 190.51886719 16.12117188 189.03773438 16.18359375 187.51171875 C16.26800315 185.57030266 16.35265095 183.62889692 16.4375 181.6875 C16.47681641 180.71103516 16.51613281 179.73457031 16.55664062 178.72851562 C16.59853516 177.79072266 16.64042969 176.85292969 16.68359375 175.88671875 C16.72025146 175.02264404 16.75690918 174.15856934 16.79467773 173.26831055 C17 171 17 171 18 168 C19.32 167.67 20.64 167.34 22 167 C22.495 179.375 22.495 179.375 23 192 C26.96 192 30.92 192 35 192 C36.19190363 183.65667456 36.09283549 175.40676978 36 167 C36.95519531 166.96261719 37.91039062 166.92523438 38.89453125 166.88671875 C46.95154556 166.47704006 54.3358776 165.72832836 62 163 C62.69351563 162.75765625 63.38703125 162.5153125 64.1015625 162.265625 C72.99640531 158.5092372 80.25348133 150.36086802 84.09765625 141.6328125 C87.32402026 132.21909239 87.77877178 123.93535123 84.0625 114.66015625 C79.00073375 104.37844356 70.39702213 99.04220673 60 95 C60.20703125 93.19921875 60.20703125 93.19921875 61 91 C63.07421875 89.39453125 63.07421875 89.39453125 65.6875 87.8125 C71.93712727 83.64608182 75.12217604 78.84100355 78.375 72.1875 C80.1183367 63.29648283 79.70928274 54.88871375 75 47 C69.16710257 39.35272204 61.4377446 34.85151918 52.125 32.6875 C45.87957382 31.73408921 45.87957382 31.73408921 35 32 C35 23.75 35 15.5 35 7 C31.04 7 27.08 7 23 7 C22.67 15.25 22.34 23.5 22 32 C21.01 31.67 20.02 31.34 19 31 C17.79022147 28.58044294 17.6973405 26.68914978 17.46484375 23.9921875 C17.33432617 22.51298828 17.33432617 22.51298828 17.20117188 21.00390625 C17.0706543 19.45509766 17.0706543 19.45509766 16.9375 17.875 C16.84662109 16.83472656 16.75574219 15.79445313 16.66210938 14.72265625 C16.43777819 12.14875113 16.21842221 9.57441329 16 7 C12.7 7 9.4 7 6 7 Z " fill="#FFFFFF" transform="translate(135,41)"/>
<path d="M0 0 C4.7523772 2.93318765 6.91396508 7.38740992 8.4375 12.625 C9.50558122 20.43239012 9.09588889 28.02917719 4.4375 34.625 C-2.69120222 40.44434875 -9.69770315 40.17529777 -18.5625 39.625 C-22.55262694 38.77759846 -25.00095867 37.20171812 -27.875 34.25 C-32.46017087 27.11751198 -32.25911024 19.82758563 -31.5625 11.625 C-30.28886545 6.77650483 -28.41128739 4.30056547 -24.5 1.1875 C-17.40073 -2.58870745 -7.52424538 -3.07023806 0 0 Z " fill="#FFFFFF" transform="translate(1969.5625,208.375)"/>
<path d="M0 0 C6.93 -0.0928125 6.93 -0.0928125 14 -0.1875 C16.16175781 -0.22846802 16.16175781 -0.22846802 18.3671875 -0.27026367 C27.9926511 -0.33256658 35.24580899 0.52750788 42.5234375 7.2734375 C46.60127367 12.04170096 47.52126465 17.69978359 47.2890625 23.83203125 C46.55076145 29.36928911 43.95711253 34.1443519 40 38 C29.16062089 46.21886988 12.86593943 45 0 45 C0 30.15 0 15.3 0 0 Z M7 5 C7 15.89 7 26.78 7 38 C23.21840526 38.78264894 23.21840526 38.78264894 37 32 C39.97552755 28.02361318 41.34849296 24.36305368 41.0625 19.375 C40.24216516 14.61705795 38.51596657 12.2815688 35 9 C28.49972124 5.07274825 22.55807918 4.85780663 15.1875 4.9375 C11.1346875 4.9684375 11.1346875 4.9684375 7 5 Z " fill="#FFFFFF" transform="translate(148,147)"/>
<path d="M0 0 C28.60058309 0 28.60058309 0 36 6 C40.71392977 11.84810837 42.70417782 17.44363031 42 25 C40.86075631 30.99242183 37.97215127 34.5189345 33.5234375 38.5546875 C26.45330305 42.60414531 18.35463671 42.26015167 10.4375 42.125 C6.993125 42.08375 3.54875 42.0425 0 42 C0 28.14 0 14.28 0 0 Z M7 7 C7 16.9 7 26.8 7 37 C9.495625 36.896875 11.99125 36.79375 14.5625 36.6875 C15.33408447 36.66260498 16.10566895 36.63770996 16.90063477 36.61206055 C23.01448722 36.2918371 28.01666109 35.08772517 32.375 30.5 C35.16149293 26.2130878 35.69323947 22.0141156 35 17 C32.95077652 13.1211127 30.82720576 10.20354271 27 8 C20.3983849 6.50970966 20.3983849 6.50970966 7 7 Z " fill="#FFFFFF" transform="translate(148,88)"/>
</svg>
